<svg width="40" height="34" viewBox="0 0 40 34" fill="none" xmlns="http://www.w3.org/2000/svg">
<path d="M32.5775 10.212C29.4414 3.26477 22.9547 -0.0963422 17.0025 0.00210055C7.61173 0.17086 0 7.61383 0 16.994C0 17.1593 0.0105474 17.3245 0.0105474 17.4897C0.242591 26.0718 7.09139 33.884 15.6876 33.9508C22.7227 33.9965 26.0838 31.0573 28.3128 28.4169C29.2621 27.3024 30.1129 25.6992 30.4434 24.9608H32.9185L29.3394 31.3807C29.118 31.9327 29.0758 32.5304 29.2058 33.1035L29.4168 34H39.9467C39.029 28.2235 35.5378 16.7901 32.5775 10.2155V10.212ZM25.7709 17.9327C25.7709 23.1924 21.4957 27.4782 16.236 27.4782C10.9764 27.4782 6.70114 23.1924 6.70114 17.9327V16.2768H10.0165V17.9327C10.0165 21.3677 12.8116 24.1628 16.236 24.1628C19.6604 24.1628 22.4555 21.3677 22.4555 17.9327V16.2768H25.7709V17.9327Z" fill="#4D74FF"/>
</svg>
